<svg id="레이어_1" data-name="레이어 1" xmlns="http://www.w3.org/2000/svg" viewBox="0 0 500 500"><defs><style>.cls-1{fill:#fff;}</style></defs><path class="cls-1" d="M131.72,273.83h19.37v1.51c-3.08.11-4.88.19-5.41.24s-.8.19-.8.4v20.81h-1.36l-.75-12a15.16,15.16,0,0,1-5.56,8.73,16.47,16.47,0,0,1-10.41,3.31,19.27,19.27,0,0,1-15.35-7.38q-6.21-7.37-6.2-18.77,0-11.64,6.24-19t15.31-7.37a17.72,17.72,0,0,1,10,2.95,13.55,13.55,0,0,1,5.82,8.05l.53-10.6h1.59v16.74h-1.44a15.34,15.34,0,0,0-5.1-11.08,16.19,16.19,0,0,0-11-4.07,17.25,17.25,0,0,0-14,6.82q-5.57,6.81-5.56,17.58t5.48,17.42A17.16,17.16,0,0,0,127,294.88a15.44,15.44,0,0,0,11.23-4.31,14.59,14.59,0,0,0,4.43-10.92V276c0-.26-.45-.42-1.36-.48s-4.11-.1-9.61-.16Z"/><path class="cls-1" d="M186.64,293l.23.48a5.92,5.92,0,0,1-5.37,3.35q-4.09,0-4.09-5.26v-3.27l-.15-.08a17.19,17.19,0,0,1-5.26,6.3,11.84,11.84,0,0,1-7.07,2.31,8.74,8.74,0,0,1-6.51-2.39,8.64,8.64,0,0,1-2.34-6.3,8.09,8.09,0,0,1,2.5-6.18q2.49-2.36,8.32-3.87l10.28-2.63v-4.86q0-8.06-8.47-8.05a10.25,10.25,0,0,0-6.88,2.19,7.28,7.28,0,0,0-2.57,5.86l-2-.4a8.21,8.21,0,0,1,3.18-6.86,13.36,13.36,0,0,1,8.4-2.47q10.52,0,10.51,9.57v20.17c0,2.76,1,4.15,3.1,4.15A7.11,7.11,0,0,0,186.64,293Zm-26.44.08a7.56,7.56,0,0,0,5.41,1.84,11.21,11.21,0,0,0,6.5-2.08,16.91,16.91,0,0,0,5.07-5.58V277.1l-9.68,2.63q-5.07,1.35-7.15,3.31a6.73,6.73,0,0,0-2.08,5.14A6.51,6.51,0,0,0,160.2,293.12Z"/><path class="cls-1" d="M219.85,294c0,.37.25.58.75.64s2.3.1,5.37.16v1.51H217.8v-23.6a10,10,0,0,0-2.45-7.13,8.7,8.7,0,0,0-6.62-2.6,11.21,11.21,0,0,0-6.47,2.12,15,15,0,0,0-4.8,5.38V294c0,.37.25.58.75.64s2.27.1,5.3.16v1.51h-14.3V294.8c3.08-.06,4.87-.11,5.37-.16s.76-.27.76-.64V263.62c0-.26-.28-.42-.83-.48s-2.5-.1-5.83-.16v-1.67c1.06,0,2.21,0,3.44,0l3-.08c.78,0,1.5,0,2.16,0v8.29a17.5,17.5,0,0,1,5.18-6.3,11.6,11.6,0,0,1,7.07-2.39,9.74,9.74,0,0,1,7.41,3,11.31,11.31,0,0,1,2.88,8.13Z"/><path class="cls-1" d="M279.53,294c0,.37.25.58.76.64s2.27.1,5.29.16v1.51h-8.17v-23.6q0-9.72-8.47-9.73a10,10,0,0,0-6.09,2.12,15.78,15.78,0,0,0-4.58,5.46,11.45,11.45,0,0,1,.08,1.59V294c0,.37.25.58.76.64s2.27.1,5.29.16v1.51h-8.17v-23.6q0-4.62-2.12-7.17a7.69,7.69,0,0,0-6.28-2.56,10.32,10.32,0,0,0-6.16,2,14.45,14.45,0,0,0-4.5,5.3V294c0,.37.25.58.75.64s2.27.1,5.3.16v1.51h-14.3V294.8c3.08-.06,4.87-.11,5.37-.16s.76-.27.76-.64V263.62c0-.26-.28-.42-.83-.48s-2.5-.1-5.83-.16v-1.67c1.06,0,2.21,0,3.45,0l3-.08c.78,0,1.5,0,2.16,0v8.37a16.36,16.36,0,0,1,4.76-6.38,10.83,10.83,0,0,1,6.89-2.39,9.11,9.11,0,0,1,6.43,2.31,10.73,10.73,0,0,1,3.1,6.54,17.31,17.31,0,0,1,4.84-6.42,10.59,10.59,0,0,1,6.81-2.43A9,9,0,0,1,277,263.7q2.53,3,2.53,8.29Z"/><path class="cls-1" d="M320.38,293l.22.48a5.9,5.9,0,0,1-5.37,3.35q-4.08,0-4.08-5.26v-3.27l-.15-.08a17.38,17.38,0,0,1-5.26,6.3,11.86,11.86,0,0,1-7.07,2.31,8.16,8.16,0,0,1-8.85-8.69,8.11,8.11,0,0,1,2.49-6.18q2.51-2.36,8.32-3.87l10.29-2.63v-4.86q0-8.06-8.47-8.05a10.28,10.28,0,0,0-6.89,2.19,7.31,7.31,0,0,0-2.57,5.86l-2-.4a8.21,8.21,0,0,1,3.18-6.86,13.35,13.35,0,0,1,8.39-2.47q10.51,0,10.52,9.57v20.17c0,2.76,1,4.15,3.1,4.15A7.14,7.14,0,0,0,320.38,293Zm-26.44.08a7.54,7.54,0,0,0,5.41,1.84,11.21,11.21,0,0,0,6.5-2.08,16.91,16.91,0,0,0,5.07-5.58V277.1l-9.68,2.63q-5.07,1.35-7.15,3.31a6.7,6.7,0,0,0-2.08,5.14A6.48,6.48,0,0,0,293.94,293.12Z"/><path class="cls-1" d="M338.83,296.87a13.87,13.87,0,0,1-10.78-4.9q-4.35-4.91-4.34-13.12a19.15,19.15,0,0,1,4.38-12.72,13.69,13.69,0,0,1,10.9-5.22,12,12,0,0,1,7.41,2.23,10.83,10.83,0,0,1,3.93,6.46l-2,.48q-1.89-7.33-9.38-7.33a11.52,11.52,0,0,0-9.35,4.66,17.85,17.85,0,0,0-3.74,11.52q0,7.41,3.86,11.68a12.27,12.27,0,0,0,9.45,4.27,12.68,12.68,0,0,0,10.59-5.11l.38.32Q346.92,296.87,338.83,296.87Z"/><path class="cls-1" d="M388.69,263a31.22,31.22,0,0,0-3.71.24,2.63,2.63,0,0,0-1.36.8l-11.5,11.88,16,19.61v.8h-2.27l-15.05-19-7.34,7.17V294c0,.37.24.58.72.64s2.2.1,5.18.16v1.51H355.25V294.8c3.08-.06,4.87-.11,5.37-.16s.76-.27.76-.64V247.2c0-.27-.28-.43-.83-.48s-2.53-.11-5.91-.16v-1.67c4.9-.11,7.82-.19,8.78-.24v38.27h.08l2.72-3,15.28-16.27c.3-.32.25-.5-.15-.56l-7-.15v-1.6h14.3Z"/><path class="cls-1" d="M216.44,321.24l-.07,13.24H214.7q-.15-8.61-.26-10.05c-.08-1-.24-1.43-.49-1.43H189.82v22.56l16.64-.16v2.07l-16.64-.16v23.2c0,.27.35.43,1.06.48s3.15.11,7.33.16v1.52h-17.7v-1.52q5.3-.07,6.17-.16t.87-.48V323.39c0-.26-.29-.42-.87-.47s-2.64-.11-6.17-.16v-1.52Z"/><path class="cls-1" d="M222.72,372.67v-1.52c3.08,0,4.87-.1,5.37-.16s.76-.26.76-.64V340c0-.27-.28-.43-.83-.48s-2.5-.11-5.83-.16v-1.67c1.06,0,2.23,0,3.52,0l3.1-.08c.78,0,1.5,0,2.16,0v32.84c0,.38.25.59.75.64s2.27.11,5.3.16v1.52ZM230,324.15a1.86,1.86,0,0,1-1.4.6,1.83,1.83,0,0,1-1.4-.6,2.19,2.19,0,0,1,0-2.95,1.83,1.83,0,0,1,1.4-.6,1.86,1.86,0,0,1,1.4.6,2.22,2.22,0,0,1,0,2.95Z"/><path class="cls-1" d="M239.29,372.67v-1.52c3.07,0,4.86-.1,5.37-.16s.75-.26.75-.64v-46.8c0-.26-.27-.42-.83-.48s-2.52-.1-5.9-.15v-1.68q7.33-.15,8.78-.24v49.35c0,.38.25.59.75.64s2.3.11,5.37.16v1.52Z"/><path class="cls-1" d="M307.21,370.35c0,.38.26.59.76.64s2.27.11,5.3.16v1.52H305.1v-23.6q0-9.74-8.47-9.73a10,10,0,0,0-6.09,2.11,15.68,15.68,0,0,0-4.58,5.46,12,12,0,0,1,.07,1.6v21.84c0,.38.26.59.76.64s2.27.11,5.3.16v1.52h-8.17v-23.6c0-3.08-.71-5.48-2.12-7.18a7.7,7.7,0,0,0-6.28-2.55,10.43,10.43,0,0,0-6.17,2,14.56,14.56,0,0,0-4.5,5.31v23.67c0,.38.26.59.76.64s2.27.11,5.3.16v1.52h-14.3v-1.52c3.07,0,4.86-.1,5.37-.16s.76-.26.76-.64V340q0-.41-.84-.48c-.55-.05-2.49-.11-5.82-.16v-1.67c1.06,0,2.2,0,3.44,0l3-.08c.78,0,1.5,0,2.15,0v8.37a16.14,16.14,0,0,1,4.77-6.38,10.81,10.81,0,0,1,6.88-2.39,9.09,9.09,0,0,1,6.43,2.31,10.57,10.57,0,0,1,3.1,6.54,17.25,17.25,0,0,1,4.84-6.42,10.61,10.61,0,0,1,6.81-2.43,8.9,8.9,0,0,1,7.15,2.95c1.69,2,2.53,4.73,2.53,8.29Z"/><rect class="cls-1" x="209.4" y="219.89" width="72.69" height="2.06"/><rect class="cls-1" x="209.49" y="204.2" width="72.69" height="2.06"/><rect class="cls-1" x="209.49" y="188.51" width="72.69" height="2.06"/><rect class="cls-1" x="209.49" y="172.81" width="72.69" height="2.06"/><path class="cls-1" d="M282.17,159.18c-4,0-6.1-1.77-7.94-3.33s-3.34-2.85-6.6-2.85-4.81,1.32-6.61,2.85-3.92,3.33-7.94,3.33-6.1-1.77-7.94-3.33-3.34-2.85-6.6-2.85-4.8,1.32-6.59,2.85-3.92,3.33-7.93,3.33-6.09-1.77-7.93-3.33-3.35-2.85-6.6-2.85v-2.06c4,0,6.09,1.77,7.93,3.34s3.35,2.84,6.6,2.84,4.8-1.32,6.59-2.84,3.92-3.34,7.93-3.34,6.1,1.77,7.94,3.34,3.35,2.84,6.6,2.84,4.81-1.32,6.61-2.84,3.92-3.34,7.94-3.34,6.1,1.77,7.94,3.34,3.35,2.84,6.6,2.84Z"/><path class="cls-1" d="M282.09,137.31c-4,0-6.1-1.77-7.94-3.34s-3.35-2.84-6.61-2.84-4.81,1.32-6.6,2.84-3.93,3.34-7.95,3.34-6.09-1.77-7.93-3.34-3.35-2.84-6.6-2.84-4.8,1.32-6.6,2.84-3.92,3.34-7.93,3.34-6.09-1.77-7.93-3.34-3.34-2.84-6.6-2.84v-2.06c4,0,6.1,1.77,7.94,3.33s3.34,2.85,6.59,2.85,4.8-1.32,6.6-2.85,3.92-3.33,7.93-3.33,6.09,1.77,7.93,3.33,3.35,2.85,6.6,2.85,4.81-1.32,6.61-2.85,3.93-3.33,7.94-3.33,6.1,1.77,7.94,3.33,3.35,2.85,6.61,2.85Z"/></svg>