<?xml version="1.0" encoding="utf-8"?>
<!-- Generator: Adobe Illustrator 24.1.2, SVG Export Plug-In . SVG Version: 6.00 Build 0)  -->
<svg version="1.1" id="레이어_1" xmlns="http://www.w3.org/2000/svg" xmlns:xlink="http://www.w3.org/1999/xlink" x="0px"
	 y="0px" width="283.4px" height="243.7px" viewBox="0 0 283.4 243.7" style="enable-background:new 0 0 283.4 243.7;"
	 xml:space="preserve">
<style type="text/css">
	.st0{stroke:#000000;stroke-width:0.75;stroke-miterlimit:10;}
</style>
<g>
	<path class="st0" d="M26.9,144.8h19.3v1.5c-3.8,0.3-4.9-0.3-6.2,0.6c0,0,0,20.8,0,20.8h-1.4l-0.8-11.9
		c-8.3,24.4-37.4,8.3-37.4-14.1c0-21.7,27.7-38.5,37.2-15.3l0.5-10.6h1.6v16.7h-1.4C34.6,106,3,117.5,3,141.7
		c0,24.4,31.9,35.5,34.9,8.9c0,0,0-3.6,0-3.6c-2.3-1.1-4.2-0.3-11-0.6L26.9,144.8z"/>
	<path class="st0" d="M81.7,164l0.2,0.5c-2.2,4.6-10,4.8-9.4-1.9c0,0,0-3.3,0-3.3l-0.1-0.1c-11.1,21.6-35.7-3.3-10.3-10.1
		c0,0,10.3-2.6,10.3-2.6v-4.8c1.2-11.1-18.3-10.5-17.9,0l-2-0.4c-0.3-12.4,23.5-12.7,22.1,0.2c0,0,0,20.1,0,20.1
		C74.1,166.8,79.1,166.4,81.7,164z M55.3,164.1c5.8,4.7,14-0.1,17-5.8c0,0,0-10.2,0-10.2C64.6,150,47.2,153.2,55.3,164.1z"/>
	<path class="st0" d="M114.9,164.9c0.9,1.4,2.3,0.4,6.1,0.8v1.5h-8.2c-0.8-5.5,2.2-26.5-2.5-30.6c-5.6-5.6-14.8-1.4-17.9,4.9
		c0,0,0,23.4,0,23.4c0.9,1.4,2.4,0.4,6,0.8v1.5H84.3v-1.5c3.8-0.3,5.2,0.6,6.1-0.8c0,0,0-30.3,0-30.3c-1.3-1.1-2.6-0.3-6.6-0.6v-1.7
		c2.5,0,6.1-0.1,8.6-0.1v8.3c3.1-7.3,13.4-12.1,19.6-5.7C117.3,139.5,114.1,158.9,114.9,164.9z"/>
	<path class="st0" d="M174.4,164.9c0.9,1.4,2.4,0.4,6,0.8v1.5h-8.2v-23.6c0.8-13.3-15.3-11.6-19.1-2.1c0.2-0.7,0,23.1,0.1,23.4
		c0.9,1.4,2.4,0.4,6,0.8v1.5h-8.2c-0.7-5.5,1.9-26.3-2.1-30.7c-5.2-5.6-14.2-1.4-16.9,4.8c0,0,0,23.6,0,23.6c0.9,1.4,2.4,0.4,6,0.8
		v1.5h-14.3v-1.5c3.8-0.3,5.2,0.6,6.1-0.8c0,0,0-30.3,0-30.3c-1.2-1.1-2.6-0.3-6.6-0.6v-1.7c2.5,0,6.1-0.1,8.6-0.1v8.4
		c3.1-10.4,20-12.4,21.2,0.1c2.6-7.3,12.8-12.4,18.8-5.9C176.6,139.1,173.8,159.1,174.4,164.9z"/>
	<path class="st0" d="M215.2,164l0.2,0.5c-2.2,4.6-10,4.8-9.4-1.9c0,0,0-3.3,0-3.3l-0.1-0.1c-11.1,21.6-35.7-3.3-10.3-10.1
		c0,0,10.3-2.6,10.3-2.6v-4.9c1.2-11.1-18.3-10.5-17.9,0l-2-0.4c-0.3-12.4,23.5-12.7,22,0.2c0,0,0,20.1,0,20.1
		C207.6,166.8,212.5,166.4,215.2,164z M188.8,164.1c5.8,4.7,13.9-0.1,17-5.8c0,0,0-10.2,0-10.2C198.1,150,180.6,153.2,188.8,164.1z"
		/>
	<path class="st0" d="M233.6,167.8c-14.8,0.2-19.5-20.6-10.7-30.7c5.6-7.8,20.4-7,22.2,3.5l-2,0.5c-4.6-15.3-24.6-4-22.4,8.8
		c-1.4,13.7,15.4,21.8,23.8,10.8l0.4,0.3C242.8,165.5,239,167.8,233.6,167.8z"/>
	<path class="st0" d="M283.4,134c-1.7,0.2-3.8-0.3-5.1,1c0,0-11.5,11.9-11.5,11.9l16,19.6v0.8h-2.3l-15-18.9l-7.3,7.2v9.5
		c0.9,1.4,2.2,0.4,5.9,0.8v1.5H250v-1.5c3.8-0.3,5.2,0.6,6.1-0.8c0,0,0-46.7,0-46.7c-1.3-1.1-2.6-0.3-6.7-0.6v-1.7
		c4.9-0.1,7.8-0.2,8.8-0.2v38.2h0.1c1.3-1.7,16.1-17.3,17.9-19.3c1.5-1.1-7-0.5-7.1-0.7v-1.6h14.3V134z"/>
</g>
<g>
	<path class="st0" d="M111.5,192.3l-0.1,13.2h-1.7c-0.4-7,0.4-9-0.8-11.5c0,0-24.1,0-24.1,0v22.5l16.6-0.1v2.1L85,218.4v23.1
		c1.7,1.1,3.3,0.3,8.4,0.6v1.5H75.7v-1.5c4.3-0.3,5.7,0.5,7-0.6c0,0,0-47,0-47c-1.3-1.1-2.7-0.3-7-0.6v-1.5H111.5z"/>
	<path class="st0" d="M117.8,243.7v-1.5c3.8-0.3,5.2,0.6,6.1-0.8c0,0,0-30.3,0-30.3c-1.2-1.1-2.6-0.3-6.6-0.6v-1.7
		c2.6,0,6.2-0.1,8.8-0.1v32.7c0.9,1.4,2.4,0.4,6,0.8v1.5H117.8z M125,195.3c-1.9,1.9-4.6-1.1-2.8-2.9
		C124.1,190.4,126.8,193.5,125,195.3z"/>
	<path class="st0" d="M134.4,243.7v-1.5c3.8-0.3,5.2,0.6,6.1-0.8c0,0,0-46.7,0-46.7c-1.3-1.1-2.6-0.3-6.7-0.6v-1.7
		c4.9-0.1,7.8-0.2,8.8-0.2v49.3c0.9,1.4,2.4,0.4,6.1,0.8v1.5H134.4z"/>
	<path class="st0" d="M202.1,241.4c0.9,1.4,2.4,0.4,6,0.8v1.5H200v-23.6c0.8-13.3-15.3-11.6-19.1-2.1c0.2-0.3,0,22.8,0.1,23.4
		c0.9,1.4,2.4,0.4,6,0.8v1.5h-8.2c-0.7-5.5,1.9-26.3-2.1-30.7c-5.2-5.6-14.2-1.4-16.9,4.8c0,0,0,23.6,0,23.6c0.9,1.4,2.4,0.4,6,0.8
		v1.5h-14.2v-1.5c3.8-0.3,5.2,0.6,6.1-0.8c0,0,0-30.3,0-30.3c-1.3-1.1-2.6-0.3-6.6-0.6v-1.7c2.5,0,6.1-0.1,8.6-0.1v8.4
		c3.1-10.4,20-12.4,21.2,0.1c2.6-7.3,12.7-12.4,18.8-5.9C204.3,215.6,201.5,235.6,202.1,241.4z"/>
</g>
<g>
	<rect x="102.4" y="88.2" width="79" height="3.2"/>
	<rect x="102.4" y="72.4" width="79" height="3.2"/>
	<rect x="102.4" y="56.6" width="79" height="3.2"/>
	<rect x="102.4" y="39.3" width="79" height="3.2"/>
	<g>
		<path d="M169.7,1c-9,0-9,7.2-18,7.2c-9,0-9-7.2-18-7.2c-9,0-9,7.2-18,7.2c-7,0-8.7-4.5-13.3-6.4v3.3c4.7,2,6.2,6.3,13.3,6.3
			c9,0,9-7.2,18-7.2c9,0,9,7.2,18,7.2c9,0,9-7.2,18-7.2c6.1,0,8.2,3.5,11.7,5.6V6.5C177.9,4.4,176,1,169.7,1z"/>
	</g>
	<g>
		<path d="M169.7,18.1c-9,0-9,7.2-18,7.2c-9,0-9-7.2-18-7.2c-9,0-9,7.2-18,7.2c-7,0-8.7-4.5-13.3-6.4v3.3c4.7,2,6.2,6.3,13.3,6.3
			c9,0,9-7.2,18-7.2c9,0,9,7.2,18,7.2c9,0,9-7.2,18-7.2c6.1,0,8.2,3.5,11.7,5.6v-3.3C177.9,21.4,176,18.1,169.7,18.1z"/>
	</g>
</g>
</svg>
