<svg id="레이어_1" data-name="레이어 1" xmlns="http://www.w3.org/2000/svg" viewBox="0 0 440.11 59.08"><defs><style>.cls-1{fill:#fff;}</style></defs><path class="cls-1" d="M83.8,39.11h16.78v1.31c-2.66.09-4.23.16-4.68.21s-.69.16-.69.34V59H94l-.66-10.37a13.06,13.06,0,0,1-4.82,7.57,14.28,14.28,0,0,1-9,2.87,16.72,16.72,0,0,1-13.31-6.39q-5.37-6.39-5.38-16.28,0-10.08,5.41-16.48a16.76,16.76,0,0,1,13.28-6.39,15.38,15.38,0,0,1,8.65,2.56,11.74,11.74,0,0,1,5,7l.46-9.19h1.38V28.4H93.83a13.35,13.35,0,0,0-4.42-9.61,14,14,0,0,0-9.54-3.52,15,15,0,0,0-12.1,5.91Q63,27.09,63,36.41t4.76,15.1a14.85,14.85,0,0,0,12,5.84,13.37,13.37,0,0,0,9.73-3.73,12.64,12.64,0,0,0,3.84-9.47V41c0-.23-.4-.36-1.18-.41s-3.57-.09-8.33-.14Z"/><path class="cls-1" d="M131.4,55.76l.19.42a5.11,5.11,0,0,1-4.65,2.9q-3.54,0-3.54-4.56V51.68l-.13-.06a14.91,14.91,0,0,1-4.56,5.45,10.25,10.25,0,0,1-6.13,2,7.09,7.09,0,0,1-7.67-7.53,7,7,0,0,1,2.16-5.36c1.45-1.36,3.85-2.47,7.22-3.35l8.91-2.28V36.34q0-7-7.34-7a8.89,8.89,0,0,0-6,1.9,6.34,6.34,0,0,0-2.23,5.07L105.89,36a7.1,7.1,0,0,1,2.76-5.94,11.5,11.5,0,0,1,7.27-2.15q9.12,0,9.12,8.3V53.69q0,3.59,2.68,3.59A6.19,6.19,0,0,0,131.4,55.76Zm-22.92.07a6.55,6.55,0,0,0,4.69,1.59,9.79,9.79,0,0,0,5.64-1.8,14.66,14.66,0,0,0,4.39-4.83V41.94l-8.39,2.28c-2.93.79-5,1.74-6.2,2.87a5.83,5.83,0,0,0-1.8,4.46A5.65,5.65,0,0,0,108.48,55.83Z"/><path class="cls-1" d="M160.18,56.59c0,.32.22.51.65.55s2,.1,4.66.14v1.31h-7.08V38.14A8.61,8.61,0,0,0,156.28,32a7.55,7.55,0,0,0-5.74-2.25,9.72,9.72,0,0,0-5.61,1.83,13.06,13.06,0,0,0-4.16,4.67V56.59c0,.32.22.51.66.55s2,.1,4.59.14v1.31H133.63V57.28c2.66,0,4.21-.09,4.65-.14s.66-.23.66-.55V30.26c0-.23-.25-.36-.73-.41s-2.16-.09-5-.14V28.26l3,0,2.62-.07c.68,0,1.3,0,1.87,0v7.19a15.14,15.14,0,0,1,4.49-5.46,10.05,10.05,0,0,1,6.13-2.07,8.49,8.49,0,0,1,6.43,2.62,9.82,9.82,0,0,1,2.49,7.05Z"/><path class="cls-1" d="M211.9,56.59c0,.32.22.51.66.55s2,.1,4.59.14v1.31h-7.08V38.14q0-8.43-7.35-8.43a8.63,8.63,0,0,0-5.27,1.83,13.55,13.55,0,0,0-4,4.74,10.8,10.8,0,0,1,.06,1.38V56.59c0,.32.22.51.66.55s2,.1,4.59.14v1.31h-7.08V38.14a9.46,9.46,0,0,0-1.84-6.22,6.66,6.66,0,0,0-5.44-2.21,9,9,0,0,0-5.34,1.76,12.58,12.58,0,0,0-3.9,4.6V56.59c0,.32.22.51.65.55s2,.1,4.59.14v1.31H168V57.28c2.67,0,4.22-.09,4.66-.14s.65-.23.65-.55V30.26c0-.23-.24-.36-.72-.41s-2.16-.09-5-.14V28.26l3,0,2.62-.07c.68,0,1.3,0,1.87,0v7.26a14,14,0,0,1,4.13-5.53,9.34,9.34,0,0,1,6-2.07,7.94,7.94,0,0,1,5.58,2,9.25,9.25,0,0,1,2.68,5.67,14.93,14.93,0,0,1,4.2-5.57,9.19,9.19,0,0,1,5.9-2.1,7.71,7.71,0,0,1,6.19,2.55c1.47,1.71,2.2,4.1,2.2,7.19Z"/><path class="cls-1" d="M247.3,55.76l.2.42a5.12,5.12,0,0,1-4.66,2.9q-3.54,0-3.54-4.56V51.68l-.13-.06a15,15,0,0,1-4.55,5.45,10.25,10.25,0,0,1-6.13,2,7.09,7.09,0,0,1-7.67-7.53A7,7,0,0,1,223,46.19c1.44-1.36,3.85-2.47,7.21-3.35l8.92-2.28V36.34q0-7-7.35-7a8.85,8.85,0,0,0-6,1.9,6.31,6.31,0,0,0-2.23,5.07L221.8,36a7.12,7.12,0,0,1,2.75-5.94,11.55,11.55,0,0,1,7.28-2.15q9.12,0,9.11,8.3V53.69q0,3.59,2.69,3.59A6.16,6.16,0,0,0,247.3,55.76Zm-22.91.07a6.53,6.53,0,0,0,4.69,1.59,9.73,9.73,0,0,0,5.63-1.8,14.69,14.69,0,0,0,4.4-4.83V41.94l-8.39,2.28c-2.93.79-5,1.74-6.2,2.87a5.83,5.83,0,0,0-1.8,4.46A5.61,5.61,0,0,0,224.39,55.83Z"/><path class="cls-1" d="M263.3,59.08A12,12,0,0,1,254,54.83c-2.52-2.84-3.77-6.62-3.77-11.37a16.53,16.53,0,0,1,3.8-11,11.84,11.84,0,0,1,9.44-4.53,10.32,10.32,0,0,1,6.42,1.94,9.39,9.39,0,0,1,3.41,5.6l-1.7.41q-1.63-6.36-8.13-6.36a10,10,0,0,0-8.1,4,15.44,15.44,0,0,0-3.24,10q0,6.42,3.34,10.12a10.62,10.62,0,0,0,8.2,3.7,11,11,0,0,0,9.17-4.42l.33.27Q270.31,59.08,263.3,59.08Z"/><path class="cls-1" d="M306.5,29.71a25.85,25.85,0,0,0-3.21.21,2.22,2.22,0,0,0-1.18.69l-10,10.3L306,57.9v.69h-2L291,42.15l-6.36,6.22v8.22c0,.32.2.51.62.55s1.91.1,4.49.14v1.31H277.53V57.28c2.66,0,4.21-.09,4.65-.14s.66-.23.66-.55V16c0-.23-.24-.37-.73-.41s-2.18-.1-5.11-.14V14c4.24-.1,6.77-.16,7.61-.21V47h.06L287,44.36l13.24-14.1c.27-.27.22-.43-.13-.48l-6-.14V28.26H306.5Z"/><path class="cls-1" d="M356.19,14l-.06,11.47h-1.44q-.13-7.47-.23-8.71c-.07-.83-.21-1.24-.43-1.24H333.12V35.1L347.54,35v1.8l-14.42-.14V56.73c0,.23.3.37.92.41s2.73.1,6.35.14v1.31H325.05V57.28c3.06,0,4.84-.09,5.35-.14s.75-.18.75-.41V15.89c0-.23-.25-.37-.75-.41s-2.29-.09-5.35-.14V14Z"/><path class="cls-1" d="M361.64,58.59V57.28c2.66,0,4.21-.09,4.65-.14s.66-.23.66-.55V30.26c0-.23-.24-.36-.72-.41s-2.17-.09-5.05-.14V28.26l3.05,0,2.68-.07c.68,0,1.3,0,1.87,0V56.59c0,.32.22.51.66.55s2,.1,4.59.14v1.31Zm6.26-42a1.65,1.65,0,0,1-1.22.52,1.63,1.63,0,0,1-1.21-.52,1.92,1.92,0,0,1,0-2.56,1.63,1.63,0,0,1,1.21-.52,1.65,1.65,0,0,1,1.22.52,1.92,1.92,0,0,1,0,2.56Z"/><path class="cls-1" d="M376,58.59V57.28c2.67,0,4.22-.09,4.66-.14s.65-.23.65-.55V16c0-.23-.24-.37-.72-.41s-2.18-.1-5.11-.14V14c4.24-.1,6.77-.16,7.6-.21V56.59c0,.32.22.51.66.55s2,.1,4.65.14v1.31Z"/><path class="cls-1" d="M434.86,56.59c0,.32.22.51.66.55s2,.1,4.59.14v1.31H433V38.14q0-8.43-7.34-8.43a8.68,8.68,0,0,0-5.28,1.83,13.65,13.65,0,0,0-4,4.74,10.31,10.31,0,0,1,.07,1.38V56.59c0,.32.22.51.65.55s2,.1,4.59.14v1.31h-7.08V38.14a9.51,9.51,0,0,0-1.83-6.22,6.69,6.69,0,0,0-5.44-2.21,9,9,0,0,0-5.35,1.76,12.58,12.58,0,0,0-3.9,4.6V56.59c0,.32.22.51.66.55s2,.1,4.59.14v1.31H391V57.28c2.66,0,4.21-.09,4.65-.14s.66-.23.66-.55V30.26c0-.23-.25-.36-.73-.41s-2.16-.09-5-.14V28.26l3,0,2.62-.07c.68,0,1.3,0,1.87,0v7.26a14.09,14.09,0,0,1,4.13-5.53,9.38,9.38,0,0,1,6-2.07,7.89,7.89,0,0,1,5.57,2,9.25,9.25,0,0,1,2.69,5.67,14.91,14.91,0,0,1,4.19-5.57,9.21,9.21,0,0,1,5.9-2.1,7.75,7.75,0,0,1,6.2,2.55c1.46,1.71,2.19,4.1,2.19,7.19Z"/><rect class="cls-1" x="-0.05" y="57.29" width="45.85" height="1.3"/><rect class="cls-1" y="47.4" width="45.85" height="1.3"/><rect class="cls-1" y="37.5" width="45.85" height="1.3"/><rect class="cls-1" y="27.6" width="45.85" height="1.3"/><path class="cls-1" d="M45.85,19a7,7,0,0,1-5-2.11,5.74,5.74,0,0,0-8.33,0,7,7,0,0,1-10,0,5.73,5.73,0,0,0-8.32,0,7,7,0,0,1-10,0A5.69,5.69,0,0,0,0,15.1V13.8a7,7,0,0,1,5,2.1,5.71,5.71,0,0,0,8.32,0,7,7,0,0,1,10,0,5.72,5.72,0,0,0,8.33,0,7,7,0,0,1,10,0,5.66,5.66,0,0,0,4.16,1.8Z"/><path class="cls-1" d="M45.8,5.2a7,7,0,0,1-5-2.1,5.72,5.72,0,0,0-8.33,0,7.06,7.06,0,0,1-5,2.1,7,7,0,0,1-5-2.1,5.71,5.71,0,0,0-8.32,0,7,7,0,0,1-5,2.1,7,7,0,0,1-5-2.1A5.66,5.66,0,0,0,0,1.3V0A7,7,0,0,1,5,2.1,5.66,5.66,0,0,0,9.11,3.9a5.66,5.66,0,0,0,4.16-1.8,7,7,0,0,1,10,0,5.67,5.67,0,0,0,4.17,1.8,5.66,5.66,0,0,0,4.16-1.8,7,7,0,0,1,10,0A5.67,5.67,0,0,0,45.8,3.9Z"/></svg>