<?xml version="1.0" encoding="utf-8"?>
<!-- Generator: Adobe Illustrator 24.1.2, SVG Export Plug-In . SVG Version: 6.00 Build 0)  -->
<svg version="1.1" id="레이어_1" xmlns="http://www.w3.org/2000/svg" xmlns:xlink="http://www.w3.org/1999/xlink" x="0px"
	 y="0px" width="440.1px" height="59.1px" viewBox="0 0 440.1 59.1" style="enable-background:new 0 0 440.1 59.1;"
	 xml:space="preserve">
<style type="text/css">
	.st0{stroke:#000000;stroke-width:0.75;stroke-miterlimit:10;}
	.st1{fill:#FFFFFF;stroke:#FFFFFF;stroke-width:0.75;stroke-miterlimit:10;}
	.st2{fill:#FFFFFF;}
</style>
<path class="st0" d="M83.8,38.1h16.8v1.3c-3.3,0.3-4.3-0.2-5.4,0.5c0,0,0,18,0,18H94l-0.7-10.4c-7.2,21.2-32.5,7.2-32.5-12.2
	c0-18.8,24-33.5,32.3-13.3l0.5-9.2H95v14.5h-1.2c-3.4-23-30.8-13-30.8,8c0,21.2,27.7,30.8,30.3,7.7c0,0,0-3.1,0-3.1
	c-2-1-3.7-0.2-9.5-0.5L83.8,38.1z"/>
<path class="st0" d="M131.4,54.8l0.2,0.4c-1.9,4-8.7,4.2-8.2-1.7c0,0,0-2.8,0-2.8l-0.1-0.1c-9.7,18.8-31-2.8-9-8.8
	c0,0,8.9-2.3,8.9-2.3v-4.2c1-9.7-15.9-9.1-15.6,0l-1.7-0.3c-0.3-10.8,20.4-11,19.1,0.2c0,0,0,17.5,0,17.5
	C124.8,57.2,129.1,56.8,131.4,54.8z M108.5,54.8c5,4.1,12.1-0.1,14.7-5c0,0,0-8.8,0-8.8C116.5,42.6,101.4,45.4,108.5,54.8z"/>
<path class="st0" d="M160.2,55.6c0.8,1.2,2,0.4,5.3,0.7v1.3h-7.1c-0.7-4.8,1.9-23-2.1-26.6c-4.8-4.9-12.9-1.2-15.5,4.3
	c0,0,0,20.3,0,20.3c0.8,1.2,2.1,0.3,5.3,0.7v1.3h-12.4v-1.3c3.3-0.3,4.5,0.5,5.3-0.7c0,0,0-26.3,0-26.3c-1.1-1-2.2-0.3-5.7-0.5v-1.5
	c2.2,0,5.3-0.1,7.5-0.1v7.2c2.7-6.4,11.7-10.5,17.1-4.9C162.3,33.5,159.5,50.3,160.2,55.6z"/>
<path class="st0" d="M211.9,55.6c0.8,1.2,2.1,0.4,5.3,0.7v1.3h-7.1V37.1c0.7-11.5-13.3-10-16.6-1.9c0.1-0.6,0,20,0.1,20.3
	c0.8,1.2,2.1,0.4,5.2,0.7v1.3h-7.1c-0.7-4.8,1.7-22.9-1.8-26.7c-4.5-4.8-12.4-1.2-14.7,4.2c0,0,0,20.5,0,20.5c0.8,1.2,2,0.4,5.2,0.7
	v1.3H168v-1.3c3.3-0.3,4.5,0.5,5.3-0.7c0,0,0-26.3,0-26.3c-1.1-1-2.2-0.3-5.7-0.5v-1.5c2.2,0,5.3-0.1,7.5-0.1v7.3
	c2.7-9.1,17.4-10.8,18.4,0.1c2.3-6.3,11.1-10.8,16.3-5.1C213.7,33.2,211.3,50.6,211.9,55.6z"/>
<path class="st0" d="M247.3,54.8l0.2,0.4c-1.9,4-8.7,4.2-8.2-1.7c0,0,0-2.8,0-2.8l-0.1-0.1c-9.6,18.8-31-2.8-9-8.8
	c0,0,8.9-2.3,8.9-2.3v-4.2c1-9.7-15.9-9.1-15.6,0l-1.8-0.3c-0.3-10.8,20.4-11,19.1,0.2c0,0,0,17.5,0,17.5
	C240.7,57.2,245,56.9,247.3,54.8z M224.4,54.8c5,4.1,12.1-0.1,14.7-5c0,0,0-8.8,0-8.8C232.4,42.6,217.3,45.4,224.4,54.8z"/>
<path class="st0" d="M263.3,58.1c-12.8,0.2-16.9-17.9-9.3-26.6c4.8-6.8,17.7-6,19.3,3l-1.7,0.4c-4-13.3-21.3-3.5-19.5,7.6
	c-1.2,11.9,13.4,18.9,20.7,9.4l0.3,0.3C271.3,56.1,268,58.1,263.3,58.1z"/>
<path class="st0" d="M306.5,28.7c-1.4,0.1-3.3-0.2-4.4,0.9c0,0-10,10.3-10,10.3l13.9,17v0.7h-2l-13-16.4l-6.4,6.2v8.2
	c0.8,1.2,1.9,0.4,5.1,0.7v1.3h-12.2v-1.3c3.3-0.3,4.5,0.5,5.3-0.7c0,0,0-40.6,0-40.6c-1.1-1-2.3-0.3-5.8-0.6V13
	c4.2-0.1,6.8-0.2,7.6-0.2V46h0.1c1.1-1.5,13.9-15,15.6-16.7c1.3-1-6.1-0.4-6.1-0.6v-1.4h12.4V28.7z"/>
<path class="st0" d="M356.2,13l-0.1,11.5h-1.4c-0.4-6.1,0.4-7.8-0.7-10c0,0-20.9,0-20.9,0v19.6l14.4-0.1v1.8l-14.4-0.1v20.1
	c1.5,1,2.8,0.2,7.3,0.5v1.3H325v-1.3c3.7-0.2,4.9,0.4,6.1-0.5c0,0,0-40.8,0-40.8c-1.1-1-2.4-0.2-6.1-0.6V13H356.2z"/>
<path class="st0" d="M361.6,57.6v-1.3c3.3-0.3,4.5,0.5,5.3-0.7c0,0,0-26.3,0-26.3c-1.1-1-2.2-0.3-5.8-0.5v-1.5
	c2.2,0,5.4-0.1,7.6-0.1v28.4c0.8,1.2,2.1,0.4,5.3,0.7v1.3H361.6z M367.9,15.6c-1.6,1.7-4-1-2.4-2.6C367.1,11.3,369.4,14,367.9,15.6z
	"/>
<path class="st0" d="M376,57.6v-1.3c3.3-0.3,4.5,0.5,5.3-0.7c0,0,0-40.6,0-40.6c-1.1-1-2.2-0.3-5.8-0.6V13c4.2-0.1,6.8-0.2,7.6-0.2
	v42.8c0.8,1.2,2,0.4,5.3,0.7v1.3H376z"/>
<path class="st0" d="M434.9,55.6c0.8,1.2,2.1,0.4,5.3,0.7v1.3H433V37.1c0.7-11.6-13.3-10-16.6-1.9c0.2-0.2,0,19.8,0.1,20.3
	c0.8,1.2,2,0.4,5.2,0.7v1.3h-7.1c-0.6-4.8,1.7-22.8-1.8-26.7c-4.5-4.8-12.4-1.2-14.7,4.2c0,0,0,20.5,0,20.5c0.8,1.2,2.1,0.3,5.3,0.7
	v1.3H391v-1.3c3.3-0.3,4.5,0.5,5.3-0.7c0,0,0-26.3,0-26.3c-1.1-1-2.2-0.3-5.7-0.5v-1.5c2.2,0,5.3-0.1,7.5-0.1v7.3
	c2.7-9.1,17.4-10.8,18.4,0.1c2.3-6.4,11.1-10.8,16.3-5.1C436.7,33.2,434.3,50.6,434.9,55.6z"/>
<rect y="56" width="50" height="2"/>
<rect y="46" width="50" height="2"/>
<rect y="36" width="50" height="2"/>
<rect y="25" width="50" height="2"/>
<g>
	<path d="M42.6,0.8c-5.7,0-5.7,4.6-11.4,4.6c-5.7,0-5.7-4.6-11.4-4.6c-5.7,0-5.7,4.6-11.4,4.6C4,5.4,2.9,2.5,0,1.3v2.1
		c3,1.2,3.9,4,8.4,4c5.7,0,5.7-4.6,11.4-4.6c5.7,0,5.7,4.6,11.4,4.6c5.7,0,5.7-4.6,11.4-4.6c3.9,0,5.2,2.2,7.4,3.6V4.3
		C47.7,2.9,46.6,0.8,42.6,0.8z"/>
</g>
<g>
	<path d="M42.6,11.6c-5.7,0-5.7,4.6-11.4,4.6c-5.7,0-5.7-4.6-11.4-4.6c-5.7,0-5.7,4.6-11.4,4.6c-4.4,0-5.5-2.9-8.4-4.1v2.1
		c3,1.2,3.9,4,8.4,4c5.7,0,5.7-4.6,11.4-4.6c5.7,0,5.7,4.6,11.4,4.6c5.7,0,5.7-4.6,11.4-4.6c3.9,0,5.2,2.2,7.4,3.6v-2.1
		C47.7,13.7,46.6,11.6,42.6,11.6z"/>
</g>
</svg>
