<?xml version="1.0" encoding="utf-8"?>
<!-- Generator: Adobe Illustrator 24.1.2, SVG Export Plug-In . SVG Version: 6.00 Build 0)  -->
<svg version="1.1" id="레이어_1" xmlns="http://www.w3.org/2000/svg" xmlns:xlink="http://www.w3.org/1999/xlink" x="0px"
	 y="0px" width="440.1px" height="59.1px" viewBox="0 0 440.1 59.1" style="enable-background:new 0 0 440.1 59.1;"
	 xml:space="preserve">
<path d="M83.8,39.1h16.8v1.3c-2.7,0.1-4.2,0.2-4.7,0.2s-0.7,0.2-0.7,0.3v18H94l-0.7-10.4c-0.7,3-2.4,5.7-4.8,7.6
	c-2.6,1.9-5.8,3-9,2.9c-5.2,0.1-10.1-2.3-13.3-6.4c-3.6-4.3-5.4-9.7-5.4-16.3c0-6.7,1.8-12.2,5.4-16.5c3.2-4.1,8.1-6.4,13.3-6.4
	c3.1,0,6.1,0.9,8.7,2.6c2.5,1.6,4.3,4.1,5,7l0.5-9.2H95v14.5h-1.2c-0.1-3.7-1.7-7.2-4.4-9.6c-2.6-2.3-6-3.6-9.5-3.5
	c-4.7-0.1-9.2,2.1-12.1,5.9c-3.2,3.9-4.8,9-4.8,15.2s1.6,11.2,4.8,15.1c2.9,3.7,7.3,5.9,12,5.8c3.6,0.1,7.1-1.2,9.7-3.7
	c2.6-2.5,3.9-5.9,3.8-9.5V41c0-0.2-0.4-0.4-1.2-0.4s-3.6-0.1-8.3-0.1L83.8,39.1z"/>
<path d="M131.4,55.8l0.2,0.4c-0.9,1.8-2.7,2.9-4.7,2.9c-2.4,0-3.5-1.5-3.5-4.6v-2.8l-0.1-0.1c-1.1,2.2-2.6,4-4.6,5.5
	c-1.8,1.3-3.9,2-6.1,2c-3.9,0.3-7.3-2.6-7.7-6.5c0-0.4,0-0.7,0-1.1c-0.1-2,0.7-4,2.2-5.4c1.4-1.4,3.8-2.5,7.2-3.3l8.9-2.3v-4.2
	c0-4.7-2.4-7-7.3-7c-2.2-0.1-4.3,0.6-6,1.9c-1.5,1.3-2.3,3.1-2.2,5.1l-1.7-0.3c-0.1-2.3,0.9-4.5,2.8-5.9c2.1-1.5,4.7-2.3,7.3-2.1
	c6.1,0,9.1,2.8,9.1,8.3v17.5c0,2.4,0.9,3.6,2.7,3.6C129.1,57.2,130.4,56.7,131.4,55.8z M108.5,55.8c1.3,1.1,3,1.7,4.7,1.6
	c2,0,4-0.6,5.6-1.8c1.8-1.3,3.3-2.9,4.4-4.8v-8.9l-8.4,2.3c-2.9,0.8-5,1.7-6.2,2.9c-1.2,1.2-1.9,2.8-1.8,4.5
	C106.7,53.1,107.3,54.7,108.5,55.8z"/>
<path d="M160.2,56.6c0,0.3,0.2,0.5,0.6,0.5s2,0.1,4.7,0.1v1.3h-7.1V38.1c0.1-2.2-0.6-4.5-2.1-6.1c-1.5-1.5-3.6-2.4-5.7-2.3
	c-2,0-4,0.7-5.6,1.8c-1.7,1.2-3.2,2.8-4.2,4.7v20.3c0,0.3,0.2,0.5,0.7,0.5s2,0.1,4.6,0.1v1.3h-12.4v-1.3c2.7,0,4.2-0.1,4.6-0.1
	s0.7-0.2,0.7-0.5V30.3c0-0.2-0.3-0.4-0.7-0.4s-2.2-0.1-5-0.1v-1.5h3l2.6-0.1c0.7,0,1.3,0,1.9,0v7.2c1-2.1,2.6-4,4.5-5.5
	c1.8-1.3,3.9-2.1,6.1-2.1c2.4-0.1,4.8,0.9,6.4,2.6c1.7,1.9,2.6,4.5,2.5,7L160.2,56.6z"/>
<path d="M211.9,56.6c0,0.3,0.2,0.5,0.7,0.5s2,0.1,4.6,0.1v1.3h-7.1V38.1c0-5.6-2.4-8.4-7.4-8.4c-1.9,0-3.8,0.7-5.3,1.8
	c-1.7,1.2-3.1,2.9-4,4.7c0,0.5,0.1,0.9,0.1,1.4v18.9c0,0.3,0.2,0.5,0.7,0.5s2,0.1,4.6,0.1v1.3h-7.1V38.1c0.1-2.2-0.5-4.4-1.8-6.2
	c-1.4-1.5-3.4-2.4-5.4-2.2c-1.9,0-3.8,0.6-5.3,1.8c-1.7,1.2-3,2.8-3.9,4.6v20.5c0,0.3,0.2,0.5,0.6,0.5s2,0.1,4.6,0.1v1.3H168v-1.3
	c2.7,0,4.2-0.1,4.7-0.1s0.6-0.2,0.6-0.5V30.3c0-0.2-0.2-0.4-0.7-0.4s-2.2-0.1-5-0.1v-1.5h3l2.6-0.1c0.7,0,1.3,0,1.9,0v7.3
	c0.9-2.2,2.3-4.1,4.1-5.5c1.7-1.4,3.8-2.1,6-2.1c2-0.1,4,0.6,5.6,2c1.5,1.5,2.5,3.5,2.7,5.7c0.9-2.2,2.4-4.1,4.2-5.6
	c1.7-1.4,3.7-2.1,5.9-2.1c2.3-0.1,4.6,0.8,6.2,2.5c1.5,1.7,2.2,4.1,2.2,7.2L211.9,56.6z"/>
<path d="M247.3,55.8l0.2,0.4c-0.9,1.8-2.7,2.9-4.7,2.9c-2.4,0-3.5-1.5-3.5-4.6v-2.8l-0.1-0.1c-1.1,2.2-2.6,4-4.6,5.5
	c-1.8,1.3-3.9,2-6.1,2c-3.9,0.3-7.3-2.6-7.7-6.5c0-0.4,0-0.7,0-1.1c-0.1-2,0.7-4,2.2-5.4c1.4-1.4,3.9-2.5,7.2-3.3l8.9-2.3v-4.2
	c0-4.7-2.4-7-7.4-7c-2.2-0.1-4.3,0.6-6,1.9c-1.5,1.3-2.3,3.1-2.2,5.1l-1.8-0.3c-0.1-2.3,0.9-4.5,2.8-5.9c2.1-1.5,4.7-2.3,7.3-2.1
	c6.1,0,9.1,2.8,9.1,8.3v17.5c0,2.4,0.9,3.6,2.7,3.6C245,57.2,246.3,56.7,247.3,55.8z M224.4,55.8c1.3,1.1,3,1.7,4.7,1.6
	c2,0,4-0.6,5.6-1.8c1.8-1.3,3.3-2.9,4.4-4.8v-8.9l-8.4,2.3c-2.9,0.8-5,1.7-6.2,2.9c-1.2,1.2-1.9,2.8-1.8,4.5
	C222.6,53.1,223.2,54.7,224.4,55.8z"/>
<path d="M263.3,59.1c-3.6,0-7-1.5-9.3-4.3c-2.5-2.8-3.8-6.6-3.8-11.4c-0.1-4,1.2-7.9,3.8-11c2.3-2.9,5.8-4.6,9.4-4.5
	c2.3-0.1,4.6,0.6,6.4,1.9c1.8,1.4,3,3.4,3.4,5.6l-1.7,0.4c-1.1-4.2-3.8-6.4-8.1-6.4c-3.2,0-6.2,1.5-8.1,4c-2.2,2.9-3.4,6.4-3.2,10
	c0,4.3,1.1,7.7,3.3,10.1c2.1,2.4,5.1,3.7,8.2,3.7c3.6,0.1,7-1.5,9.2-4.4l0.3,0.3C271.3,57.1,268,59.1,263.3,59.1z"/>
<path d="M306.5,29.7c-1.1,0-2.1,0.1-3.2,0.2c-0.5,0.1-0.9,0.3-1.2,0.7l-10,10.3l13.9,17v0.7h-2l-13-16.4l-6.4,6.2v8.2
	c0,0.3,0.2,0.5,0.6,0.5s1.9,0.1,4.5,0.1v1.3h-12.2v-1.3c2.7,0,4.2-0.1,4.6-0.1s0.7-0.2,0.7-0.5V16c0-0.2-0.2-0.4-0.7-0.4
	s-2.2-0.1-5.1-0.1V14c4.2-0.1,6.8-0.2,7.6-0.2V47h0.1l2.3-2.6l13.2-14.1c0.3-0.3,0.2-0.4-0.1-0.5l-6-0.1v-1.4h12.4V29.7z"/>
<path d="M356.2,14l-0.1,11.5h-1.4c-0.1-5-0.2-7.9-0.2-8.7c-0.1-0.8-0.2-1.2-0.4-1.2h-20.9v19.6l14.4-0.1v1.8l-14.4-0.1v20.1
	c0,0.2,0.3,0.4,0.9,0.4s2.7,0.1,6.4,0.1v1.3H325v-1.3c3.1,0,4.8-0.1,5.4-0.1s0.8-0.2,0.8-0.4V15.9c0-0.2-0.3-0.4-0.8-0.4
	s-2.3-0.1-5.4-0.1V14H356.2z"/>
<path d="M361.6,58.6v-1.3c2.7,0,4.2-0.1,4.6-0.1s0.7-0.2,0.7-0.5V30.3c0-0.2-0.2-0.4-0.7-0.4s-2.2-0.1-5-0.1v-1.5h3l2.7-0.1
	c0.7,0,1.3,0,1.9,0v28.4c0,0.3,0.2,0.5,0.7,0.5s2,0.1,4.6,0.1v1.3H361.6z M367.9,16.6c-0.3,0.3-0.8,0.5-1.2,0.5
	c-0.5,0-0.9-0.2-1.2-0.5c-0.7-0.7-0.7-1.8,0-2.6c0.3-0.3,0.8-0.5,1.2-0.5c0.5,0,0.9,0.2,1.2,0.5C368.6,14.8,368.6,15.9,367.9,16.6z"
	/>
<path d="M376,58.6v-1.3c2.7,0,4.2-0.1,4.7-0.1s0.6-0.2,0.6-0.5V16c0-0.2-0.2-0.4-0.7-0.4s-2.2-0.1-5.1-0.1V14
	c4.2-0.1,6.8-0.2,7.6-0.2v42.8c0,0.3,0.2,0.5,0.7,0.5s2,0.1,4.6,0.1v1.3H376z"/>
<path d="M434.9,56.6c0,0.3,0.2,0.5,0.7,0.5s2,0.1,4.6,0.1v1.3H433V38.1c0-5.6-2.4-8.4-7.3-8.4c-1.9,0-3.8,0.7-5.3,1.8
	c-1.7,1.3-3,2.9-4,4.7c0.1,0.5,0.1,0.9,0.1,1.4v18.9c0,0.3,0.2,0.5,0.6,0.5s2,0.1,4.6,0.1v1.3h-7.1V38.1c0.1-2.2-0.5-4.4-1.8-6.2
	c-1.4-1.5-3.4-2.4-5.4-2.2c-1.9,0-3.8,0.6-5.4,1.8c-1.7,1.2-3,2.8-3.9,4.6v20.5c0,0.3,0.2,0.5,0.7,0.5s2,0.1,4.6,0.1v1.3H391v-1.3
	c2.7,0,4.2-0.1,4.6-0.1s0.7-0.2,0.7-0.5V30.3c0-0.2-0.3-0.4-0.7-0.4s-2.2-0.1-5-0.1v-1.5h3l2.6-0.1c0.7,0,1.3,0,1.9,0v7.3
	c0.9-2.2,2.3-4.1,4.1-5.5c1.7-1.4,3.8-2.1,6-2.1c2-0.1,4,0.6,5.6,2c1.5,1.5,2.5,3.5,2.7,5.7c0.9-2.2,2.4-4.1,4.2-5.6
	c1.7-1.4,3.7-2.1,5.9-2.1c2.3-0.1,4.6,0.8,6.2,2.5c1.5,1.7,2.2,4.1,2.2,7.2L434.9,56.6z"/>
<rect x="-0.1" y="57.3" width="45.8" height="1.3"/>
<rect y="47.4" width="45.8" height="1.3"/>
<rect y="37.5" width="45.8" height="1.3"/>
<rect y="27.6" width="45.8" height="1.3"/>
<path d="M45.8,19c-1.9,0-3.7-0.8-5-2.1c-2.2-2.3-5.8-2.4-8.1-0.2c-0.1,0.1-0.1,0.1-0.2,0.2c-2.7,2.8-7.1,2.8-9.9,0.1
	c0,0-0.1-0.1-0.1-0.1c-2.2-2.3-5.8-2.4-8.1-0.2c-0.1,0.1-0.1,0.1-0.2,0.2c-2.7,2.8-7.1,2.8-9.9,0.1c0,0-0.1-0.1-0.1-0.1
	c-1.1-1.2-2.6-1.8-4.2-1.8v-1.3c1.9,0,3.7,0.8,5,2.1c2.2,2.3,5.8,2.4,8.1,0.2c0.1-0.1,0.2-0.2,0.2-0.2c2.7-2.8,7.1-2.8,9.9-0.1
	c0,0,0.1,0.1,0.1,0.1c2.2,2.3,5.8,2.4,8.1,0.2c0.1-0.1,0.2-0.2,0.2-0.2c2.7-2.8,7.1-2.8,9.9-0.1c0,0,0.1,0.1,0.1,0.1
	c1.1,1.2,2.6,1.8,4.2,1.8L45.8,19z"/>
<path d="M45.8,5.2c-1.9,0-3.7-0.8-5-2.1c-2.2-2.3-5.8-2.4-8.1-0.2c-0.1,0.1-0.2,0.2-0.2,0.2c-1.3,1.3-3.1,2.1-5,2.1
	c-1.9,0-3.7-0.8-5-2.1c-2.2-2.3-5.8-2.4-8.1-0.2c-0.1,0.1-0.2,0.2-0.2,0.2c-1.3,1.3-3.1,2.1-5,2.1c-1.9,0-3.7-0.8-5-2.1
	C3.1,1.9,1.6,1.3,0,1.3V0c1.9,0,3.7,0.8,5,2.1c1.1,1.1,2.6,1.8,4.1,1.8c1.6,0,3.1-0.6,4.2-1.8C16-0.7,20.4-0.7,23.2,2
	c0,0,0.1,0.1,0.1,0.1c1.1,1.2,2.6,1.8,4.2,1.8c1.6,0,3.1-0.6,4.2-1.8c2.7-2.8,7.1-2.8,9.9-0.1c0,0,0.1,0.1,0.1,0.1
	c1.1,1.2,2.6,1.8,4.2,1.8V5.2z"/>
</svg>
