<?xml version="1.0" encoding="utf-8"?>
<!-- Generator: Adobe Illustrator 24.1.2, SVG Export Plug-In . SVG Version: 6.00 Build 0)  -->
<svg version="1.1" id="레이어_1" xmlns="http://www.w3.org/2000/svg" xmlns:xlink="http://www.w3.org/1999/xlink" x="0px"
	 y="0px" width="283.4px" height="243.7px" viewBox="0 0 283.4 243.7" style="enable-background:new 0 0 283.4 243.7;"
	 xml:space="preserve">
<style type="text/css">
	.st0{fill:#FFFFFF;}
</style>
<path class="st0" d="M26.5,144.8h19.4v1.5c-3.1,0.1-4.9,0.2-5.4,0.2s-0.8,0.2-0.8,0.4v20.8h-1.4l-0.8-12c-0.8,3.5-2.7,6.6-5.6,8.7
	c-3,2.3-6.7,3.4-10.4,3.3c-6,0.1-11.7-2.7-15.3-7.4C2.1,155.5,0,149.2,0,141.6c0-7.8,2.1-14.1,6.2-19c4.2-4.9,9.3-7.4,15.3-7.4
	c3.6,0,7,1,10,2.9c2.9,1.8,5,4.7,5.8,8.1l0.5-10.6h1.6v16.7h-1.4c-0.1-4.2-1.9-8.3-5.1-11.1c-3-2.7-7-4.1-11-4.1
	c-5.5-0.1-10.7,2.4-14,6.8c-3.7,4.5-5.6,10.4-5.6,17.6s1.8,13,5.5,17.4c3.3,4.3,8.4,6.8,13.9,6.8c4.2,0.1,8.2-1.4,11.2-4.3
	c2.9-2.9,4.6-6.8,4.4-10.9v-3.6c0-0.3-0.4-0.4-1.4-0.5s-4.1-0.1-9.6-0.2L26.5,144.8z"/>
<path class="st0" d="M81.4,163.9l0.2,0.5c-1,2.1-3.1,3.4-5.4,3.4c-2.7,0-4.1-1.8-4.1-5.3v-3.3l-0.1-0.1c-1.2,2.5-3,4.7-5.3,6.3
	c-2,1.5-4.5,2.3-7.1,2.3c-2.4,0.1-4.8-0.7-6.5-2.4c-1.6-1.7-2.4-4-2.3-6.3c-0.1-2.3,0.8-4.6,2.5-6.2c1.7-1.6,4.4-2.9,8.3-3.9
	l10.3-2.6v-4.9c0-5.4-2.8-8.1-8.5-8c-2.5-0.1-4.9,0.6-6.9,2.2c-1.7,1.5-2.7,3.6-2.6,5.9l-2-0.4c-0.1-2.7,1.1-5.2,3.2-6.9
	c2.4-1.7,5.4-2.6,8.4-2.5c7,0,10.5,3.2,10.5,9.6v20.2c0,2.8,1,4.1,3.1,4.1C78.8,165.6,80.2,165,81.4,163.9z M55,164
	c1.5,1.3,3.4,2,5.4,1.8c2.3,0,4.6-0.7,6.5-2.1c2.1-1.5,3.8-3.4,5.1-5.6V148l-9.7,2.6c-3.4,0.9-5.8,2-7.1,3.3
	c-1.4,1.3-2.2,3.2-2.1,5.1C52.9,161,53.6,162.8,55,164L55,164z"/>
<path class="st0" d="M114.6,164.9c0,0.4,0.3,0.6,0.8,0.6s2.3,0.1,5.4,0.2v1.5h-8.2v-23.6c0.1-2.6-0.7-5.2-2.4-7.1
	c-1.7-1.8-4.1-2.7-6.6-2.6c-2.3,0-4.6,0.8-6.5,2.1c-2,1.4-3.7,3.2-4.8,5.4v23.5c0,0.4,0.3,0.6,0.8,0.6s2.3,0.1,5.3,0.2v1.5H84v-1.5
	c3.1-0.1,4.9-0.1,5.4-0.2s0.8-0.3,0.8-0.6v-30.4c0-0.3-0.3-0.4-0.8-0.5s-2.5-0.1-5.8-0.2v-1.7c1.1,0,2.2,0,3.4,0l3-0.1
	c0.8,0,1.5,0,2.2,0v8.3c1.2-2.5,3-4.6,5.2-6.3c2-1.6,4.5-2.4,7.1-2.4c2.8-0.1,5.5,1,7.4,3c2,2.2,3,5.1,2.9,8.1L114.6,164.9z"/>
<path class="st0" d="M174.3,164.9c0,0.4,0.3,0.6,0.8,0.6s2.3,0.1,5.3,0.2v1.5h-8.2v-23.6c0-6.5-2.8-9.7-8.5-9.7
	c-2.2,0-4.3,0.8-6.1,2.1c-1.9,1.4-3.5,3.3-4.6,5.5c0.1,0.5,0.1,1.1,0.1,1.6v21.9c0,0.4,0.3,0.6,0.8,0.6s2.3,0.1,5.3,0.2v1.5H151
	v-23.6c0-3.1-0.7-5.5-2.1-7.2c-1.6-1.8-3.9-2.7-6.3-2.6c-2.2,0-4.4,0.7-6.2,2c-1.9,1.4-3.5,3.2-4.5,5.3v23.7c0,0.4,0.3,0.6,0.8,0.6
	s2.3,0.1,5.3,0.2v1.5h-14.3v-1.5c3.1-0.1,4.9-0.1,5.4-0.2s0.8-0.3,0.8-0.6v-30.4c0-0.3-0.3-0.4-0.8-0.5s-2.5-0.1-5.8-0.2v-1.7
	c1.1,0,2.2,0,3.4,0l3-0.1c0.8,0,1.5,0,2.2,0v8.4c1-2.5,2.7-4.7,4.8-6.4c2-1.6,4.4-2.4,6.9-2.4c2.4-0.1,4.7,0.7,6.4,2.3
	c1.8,1.8,2.9,4.1,3.1,6.5c1.1-2.5,2.7-4.7,4.8-6.4c1.9-1.6,4.3-2.4,6.8-2.4c2.7-0.2,5.3,0.9,7.2,2.9c1.7,2,2.5,4.8,2.5,8.3V164.9z"
	/>
<path class="st0" d="M215.1,163.9l0.2,0.5c-1,2.1-3.1,3.4-5.4,3.4c-2.7,0-4.1-1.8-4.1-5.3v-3.3l-0.1-0.1c-1.2,2.5-3,4.7-5.3,6.3
	c-2,1.5-4.5,2.3-7.1,2.3c-4.5,0.4-8.4-2.9-8.8-7.4c0-0.4,0-0.8,0-1.3c-0.1-2.3,0.8-4.6,2.5-6.2c1.7-1.6,4.4-2.9,8.3-3.9l10.3-2.6
	v-4.9c0-5.4-2.8-8.1-8.5-8c-2.5-0.1-4.9,0.6-6.9,2.2c-1.7,1.5-2.7,3.6-2.6,5.9l-2-0.4c-0.1-2.7,1.1-5.2,3.2-6.9
	c2.4-1.7,5.4-2.6,8.4-2.5c7,0,10.5,3.2,10.5,9.6v20.2c0,2.8,1,4.1,3.1,4.1C212.5,165.6,214,165,215.1,163.9z M188.7,164
	c1.5,1.3,3.4,2,5.4,1.8c2.3,0,4.6-0.7,6.5-2.1c2.1-1.5,3.8-3.4,5.1-5.6V148l-9.7,2.6c-3.4,0.9-5.8,2-7.1,3.3
	c-1.4,1.3-2.2,3.2-2.1,5.1C186.7,161,187.4,162.8,188.7,164L188.7,164z"/>
<path class="st0" d="M233.6,167.8c-4.1,0.1-8.1-1.7-10.8-4.9c-2.9-3.3-4.3-7.6-4.3-13.1c-0.1-4.6,1.4-9.1,4.4-12.7
	c2.6-3.3,6.7-5.3,10.9-5.2c2.6-0.1,5.3,0.7,7.4,2.2c2,1.6,3.4,3.9,3.9,6.5l-2,0.5c-1.3-4.9-4.4-7.3-9.4-7.3c-3.7,0-7.2,1.7-9.4,4.7
	c-2.6,3.3-3.9,7.4-3.7,11.5c0,4.9,1.3,8.8,3.9,11.7c2.4,2.7,5.8,4.3,9.5,4.3c4.2,0.1,8.1-1.8,10.6-5.1l0.4,0.3
	C242.7,165.5,239,167.8,233.6,167.8z"/>
<path class="st0" d="M283.4,133.9c-1.2,0-2.5,0.1-3.7,0.2c-0.5,0.1-1,0.4-1.4,0.8l-11.5,11.9l16,19.6v0.8h-2.3l-15-19l-7.3,7.2v9.5
	c0,0.4,0.2,0.6,0.7,0.6s2.2,0.1,5.2,0.2v1.5H250v-1.5c3.1-0.1,4.9-0.1,5.4-0.2s0.8-0.3,0.8-0.6v-46.8c0-0.3-0.3-0.4-0.8-0.5
	s-2.5-0.1-5.9-0.2v-1.7c4.9-0.1,7.8-0.2,8.8-0.2v38.3h0.1l2.7-3l15.3-16.3c0.3-0.3,0.3-0.5-0.1-0.6l-7-0.1v-1.6h14.3L283.4,133.9z"
	/>
<path class="st0" d="M111.2,192.2l-0.1,13.2h-1.7c-0.1-5.7-0.2-9.1-0.3-10c-0.1-1-0.2-1.4-0.5-1.4H84.6v22.6l16.6-0.2v2.1l-16.6-0.2
	v23.2c0,0.3,0.4,0.4,1.1,0.5s3.1,0.1,7.3,0.2v1.5H75.3v-1.5c3.5,0,5.6-0.1,6.2-0.2c0.6-0.1,0.9-0.2,0.9-0.5v-47.1
	c0-0.3-0.3-0.4-0.9-0.5s-2.6-0.1-6.2-0.2v-1.5L111.2,192.2z"/>
<path class="st0" d="M117.5,243.6v-1.5c3.1,0,4.9-0.1,5.4-0.2s0.8-0.3,0.8-0.6v-30.4c0-0.3-0.3-0.4-0.8-0.5s-2.5-0.1-5.8-0.2v-1.7
	c1.1,0,2.2,0,3.5,0l3.1-0.1c0.8,0,1.5,0,2.2,0v32.8c0,0.4,0.3,0.6,0.8,0.6s2.3,0.1,5.3,0.2v1.5L117.5,243.6z M124.8,195.1
	c-0.4,0.4-0.9,0.6-1.4,0.6c-0.5,0-1-0.2-1.4-0.6c-0.8-0.8-0.8-2.1,0-3c0.4-0.4,0.9-0.6,1.4-0.6c0.5,0,1,0.2,1.4,0.6
	C125.5,193,125.5,194.2,124.8,195.1z"/>
<path class="st0" d="M134,243.6v-1.5c3.1,0,4.9-0.1,5.4-0.2s0.8-0.3,0.8-0.6v-46.8c0-0.3-0.3-0.4-0.8-0.5s-2.5-0.1-5.9-0.1v-1.7
	c4.9-0.1,7.8-0.2,8.8-0.2v49.4c0,0.4,0.3,0.6,0.8,0.6s2.3,0.1,5.4,0.2v1.5L134,243.6z"/>
<path class="st0" d="M202,241.3c0,0.4,0.3,0.6,0.8,0.6s2.3,0.1,5.3,0.2v1.5h-8.2V220c0-6.5-2.8-9.7-8.5-9.7c-2.2,0-4.3,0.8-6.1,2.1
	c-1.9,1.4-3.5,3.3-4.6,5.5c0.1,0.5,0.1,1.1,0.1,1.6v21.8c0,0.4,0.3,0.6,0.8,0.6s2.3,0.1,5.3,0.2v1.5h-8.2V220c0-3.1-0.7-5.5-2.1-7.2
	c-1.6-1.8-3.9-2.7-6.3-2.5c-2.2,0-4.4,0.7-6.2,2c-1.9,1.4-3.5,3.2-4.5,5.3v23.7c0,0.4,0.3,0.6,0.8,0.6s2.3,0.1,5.3,0.2v1.5h-14.3
	v-1.5c3.1,0,4.9-0.1,5.4-0.2s0.8-0.3,0.8-0.6v-30.3c0-0.3-0.3-0.4-0.8-0.5c-0.5,0-2.5-0.1-5.8-0.2v-1.7c1.1,0,2.2,0,3.4,0l3-0.1
	c0.8,0,1.5,0,2.1,0v8.4c1-2.5,2.7-4.7,4.8-6.4c1.9-1.6,4.4-2.4,6.9-2.4c2.4-0.1,4.7,0.7,6.4,2.3c1.8,1.7,2.9,4.1,3.1,6.5
	c1.1-2.5,2.7-4.7,4.8-6.4c1.9-1.6,4.3-2.4,6.8-2.4c2.7-0.2,5.3,0.9,7.1,3c1.7,2,2.5,4.7,2.5,8.3L202,241.3z"/>
<rect x="104.2" y="90.8" class="st0" width="72.7" height="2.1"/>
<rect x="104.2" y="75.1" class="st0" width="72.7" height="2.1"/>
<rect x="104.2" y="59.4" class="st0" width="72.7" height="2.1"/>
<rect x="104.2" y="43.7" class="st0" width="72.7" height="2.1"/>
<path class="st0" d="M176.9,30.1c-4,0-6.1-1.8-7.9-3.3s-3.3-2.9-6.6-2.9s-4.8,1.3-6.6,2.9s-3.9,3.3-7.9,3.3s-6.1-1.8-7.9-3.3
	s-3.3-2.9-6.6-2.9s-4.8,1.3-6.6,2.9c-1.8,1.5-3.9,3.3-7.9,3.3s-6.1-1.8-7.9-3.3s-3.4-2.9-6.6-2.9v-2.1c4,0,6.1,1.8,7.9,3.3
	s3.4,2.8,6.6,2.8s4.8-1.3,6.6-2.8s3.9-3.3,7.9-3.3s6.1,1.8,7.9,3.3s3.4,2.8,6.6,2.8s4.8-1.3,6.6-2.8s3.9-3.3,7.9-3.3
	s6.1,1.8,7.9,3.3s3.4,2.8,6.6,2.8V30.1z"/>
<path class="st0" d="M176.8,8.2c-4,0-6.1-1.8-7.9-3.3s-3.4-2.8-6.6-2.8s-4.8,1.3-6.6,2.8s-3.9,3.3-7.9,3.3s-6.1-1.8-7.9-3.3
	s-3.4-2.8-6.6-2.8s-4.8,1.3-6.6,2.8c-1.8,1.5-3.9,3.3-7.9,3.3s-6.1-1.8-7.9-3.3s-3.3-2.8-6.6-2.8V0c4,0,6.1,1.8,7.9,3.3
	s3.3,2.9,6.6,2.9s4.8-1.3,6.6-2.9s3.9-3.3,7.9-3.3s6.1,1.8,7.9,3.3s3.4,2.9,6.6,2.9c3.2,0,4.8-1.3,6.6-2.9s3.9-3.3,7.9-3.3
	s6.1,1.8,7.9,3.3s3.4,2.9,6.6,2.9V8.2z"/>
</svg>
